<svg id="Режим_изоляции" data-name="Режим изоляции" xmlns="http://www.w3.org/2000/svg" viewBox="0 0 643 835"><defs><style>.cls-1{fill:#be9132;stroke:#be9132;stroke-miterlimit:10}</style></defs><path class="cls-1" d="M1655.509 1117.5H2169.7a63.979 63.979 0 0 0 63.906-63.906V347.406A63.979 63.979 0 0 0 2169.7 283.5h-514.191a63.979 63.979 0 0 0-63.906 63.906v706.188a63.979 63.979 0 0 0 63.906 63.906zM1621.6 347.406a33.945 33.945 0 0 1 33.906-33.906H2169.7a33.945 33.945 0 0 1 33.906 33.906v706.188a33.945 33.945 0 0 1-33.906 33.906h-514.191a33.945 33.945 0 0 1-33.906-33.906z" transform="translate(-1591.102 -283)"/><path class="cls-1" d="M1710.6 549.5h104a15 15 0 0 0 15-15v-45.017l-30 30v.017h-74v-74h70.557l-22.77 22.769-14.278-14.278L1737.9 475.2l35.49 35.5 89.8-89.8-21.213-21.213-18.642 18.642a14.914 14.914 0 0 0-8.735-2.822h-104a15 15 0 0 0-15 15v104a15 15 0 0 0 15 14.993z" transform="translate(-1591.102 -283)"/><path class="cls-1" d="M299.5 147.5h248v30h-248zm0 74h124v30h-124z"/><path class="cls-1" d="M1710.6 767.5h104a15 15 0 0 0 15-15v-45.017l-30 30v.017h-74v-74h70.557l-22.77 22.769-14.278-14.278L1737.9 693.2l35.49 35.5 89.8-89.8-21.213-21.213-18.642 18.642a14.914 14.914 0 0 0-8.735-2.822h-104a15 15 0 0 0-15 15v104a15 15 0 0 0 15 14.993z" transform="translate(-1591.102 -283)"/><path class="cls-1" d="M299.5 365.5h248v30h-248zm0 74h124v30h-124z"/><path class="cls-1" d="M1710.6 985.5h104a15 15 0 0 0 15-15v-45.017l-30 30v.017h-74v-74h70.557l-22.77 22.769-14.278-14.278L1737.9 911.2l35.49 35.5 89.8-89.8-21.213-21.213-18.642 18.642a14.914 14.914 0 0 0-8.735-2.822h-104a15 15 0 0 0-15 15v104a15 15 0 0 0 15 14.993z" transform="translate(-1591.102 -283)"/><path class="cls-1" d="M299.5 583.5h248v30h-248zm0 74h124v30h-124z"/></svg>