<svg data-name="Режим изоляции" xmlns="http://www.w3.org/2000/svg" viewBox="0 0 394.141 394.169"><path d="M71.37 348.909a8.961 8.961 0 1 0 11.25-13.951 178.949 178.949 0 1 1 91.3 39.907c-21.867-2.818-22.435 15.785 3.634 18.352a196.976 196.976 0 0 0 171.193-70.246c69.464-83.687 57.909-208.111-25.778-277.575S114.858-12.516 45.394 71.171-12.515 279.283 71.17 348.747l.2.162zM246.79 94.031a40.32 40.32 0 1 0 40.32 40.32 40.457 40.457 0 0 0-40.32-40.32zm0 17.92a22.4 22.4 0 1 1-22.4 22.4 22.266 22.266 0 0 1 22.4-22.4zm-107.52 44.8a40.32 40.32 0 1 0 29.4 67.9l39.76 22.82a39.541 39.541 0 0 0-1.96 12.32 40.355 40.355 0 1 0 11.06-27.72l-39.9-22.82a39.26 39.26 0 0 0 0-24.5l15.4-8.68a9.03 9.03 0 1 0-8.96-15.68l-15.54 8.96a40.222 40.222 0 0 0-29.26-12.6zm0 17.92a22.4 22.4 0 1 1-22.4 22.4 22.265 22.265 0 0 1 22.4-22.4zm107.52 62.72a22.4 22.4 0 1 1-22.4 22.4 22.266 22.266 0 0 1 22.4-22.4z" fill="#be9132"/></svg>